<svg xmlns="http://www.w3.org/2000/svg" viewBox="0 0 70.25 70.45"><defs><style>.cls-1{fill:#fbea8e;}.cls-2{fill:#fcc237;}.cls-3{fill:#f8a103;}.cls-4{fill:#fbba06;}.cls-5{fill:#fbf6ae;}</style></defs><g id="Layer_2" data-name="Layer 2"><g id="Layer_1-2" data-name="Layer 1"><path class="cls-1" d="M61.35,12.05a.18.18,0,0,1,.16.2.71.71,0,0,0,.7.81h0c0,.54.13.93.73,1h0a.5.5,0,0,0,.49.62l0-.05c0,.57.12,1,.76,1v0c-.21.62.06,1,.66,1.09l0-.05A1.11,1.11,0,0,0,65.58,18v0a1.14,1.14,0,0,0,.71,1.32.73.73,0,0,1,.33.68c-.14.24-.16.4.2.28l0,.09a.42.42,0,0,0,.27.51l.17.51c-.32.54,0,1,.21,1.44a34.69,34.69,0,0,1-.7,26.56c-.34.8-1.07,1.5-.85,2.5l-.37.73c-.56.26-1,.61-.81,1.3l0-.06A.85.85,0,0,0,64.06,55l0,0a.81.81,0,0,0-.78,1l0,0a.53.53,0,0,0-.45.64h0c-.6.07-.75.46-.74,1h0a.6.6,0,0,0-.63.73h0a7.44,7.44,0,0,0-3.4,3.41h0a.62.62,0,0,0-.73.64h0c-.53,0-.91.15-1,.74h0a.53.53,0,0,0-.64.46l.05,0a.79.79,0,0,0-1,.77l0,0c-.58-.08-1,0-1,.74h0c-.61-.23-.95,0-1.09.62l0-.06a.38.38,0,0,0-.44.28h0a.74.74,0,0,0-1,.52l.06,0c-.61-.21-1.09.17-1.59.39-10.72,4.72-21.27,4.49-31.63-1.09A2.5,2.5,0,0,0,16.69,65h0l-.39-.32,0,0c-.3-1-1.66-1.11-2-2.12.9-.12,1.43.59,2.08,1C18.76,65,21.07,66.53,23.84,67l0,0a1.42,1.42,0,0,0,1.34.6,31,31,0,0,0,21.06-.59A29.56,29.56,0,0,0,60,58.14,32.8,32.8,0,0,0,68.4,29.79,32.44,32.44,0,0,0,53.91,7.25c-4-2.76-3.18-2.28-6.32,1a2.31,2.31,0,0,1-1.34-.28C46.42,6.88,47.34,6.4,48,5.71c.4-.45.78-.83.18-1.43a4.09,4.09,0,0,0-5.25-.06c-.62.64-1.14,1.39-1.71,2.09-.68-.07-1.36-.1-2-.2a29.55,29.55,0,0,0-29.92,15c-3.39,6.23-4.1,12.83-3.15,19.73-.56.55-1.11,1.09-1.66,1.65-1.92,1.93-1.93,2.33-.84,4.84.52,1.2,1.07,1,1.89.42s1.16-1.6,2.34-1.38c.11.44.21.87.32,1.31a5.39,5.39,0,0,0-.54.4c-3,2.79-2.86,2.72-.62,6.17,1.8,2.76,4.21,4.93,6.33,7.38-.64.14-1.12-.41-1.72-.42L11.34,61a.69.69,0,0,0-.75-.73h0c0-.47-.21-.7-.69-.68h0c0-.47-.21-.69-.66-.71h0c0-.45-.2-.69-.66-.7h0c0-.53-.14-.92-.75-1h0c0-.35-.09-.59-.48-.62l0,0a.94.94,0,0,0-.9-1.15h0a.87.87,0,0,0-.75-1.08L5.52,54c.15-.25.09-.38-.21-.35h0c.09-.57,0-1-.7-1.08l0,0c.22-.81-.21-1.24-.88-1.54l-.27-.53a6,6,0,0,0-1.58-3.77l.05,0c-.68-4-1.54-8-1.88-12.09,0-.85,0-1.7,0-2.56a1.12,1.12,0,0,0,.14-1.8c.06-.19.12-.39.17-.58a1.31,1.31,0,0,0,.6-1,53.61,53.61,0,0,1,2-6.8c.22-.61.79-1.17.43-1.91,0-.24,0-.45.27-.57,1.3-.33,1.25-1.42,1.36-2.42v0c1.07-.28,1.24-1.17,1.37-2.08l0,0a1,1,0,0,0,.73-1l0,0c1-.44,1.85-1,1.79-2.22l.08-.1c1.15.15,1.4-.59,1.5-1.49l0,0A2.31,2.31,0,0,0,12,9.59C17.39,5,23.36,1.74,30.55,1A34.89,34.89,0,0,1,47,2.86a11.58,11.58,0,0,0,3.73,1l0,0a4.12,4.12,0,0,0,3.43,2.05l0,0c.09.61.48.77,1,.7h0c.1.59.48.76,1,.71h0a1,1,0,0,0,1.14.93l-.06,0a.52.52,0,0,0,.62.48h0a.63.63,0,0,0,.72.66v0A4.84,4.84,0,0,0,61.35,12.05Z"/><path class="cls-2" d="M50.7,3.86a11.58,11.58,0,0,1-3.73-1A34.89,34.89,0,0,0,30.55,1C23.36,1.74,17.39,5,12,9.59a2.31,2.31,0,0,1-1.5.68,19,19,0,0,1,5.15-4.34c10.74-7,22-7.65,33.76-2.81A2.57,2.57,0,0,1,50.7,3.86Z"/><path class="cls-2" d="M16.69,65a2.5,2.5,0,0,1,1.58.48c10.36,5.58,20.91,5.81,31.63,1.09.5-.22,1-.6,1.59-.39a26.12,26.12,0,0,1-10.4,3.72A35.82,35.82,0,0,1,19,66.65,6.34,6.34,0,0,1,16.69,65Z"/><path class="cls-2" d="M65.91,51.9c-.22-1,.51-1.7.85-2.5a34.69,34.69,0,0,0,.7-26.56c-.17-.47-.53-.9-.21-1.44a20.91,20.91,0,0,1,2.6,8.32,35.15,35.15,0,0,1-3.34,21.4A5.58,5.58,0,0,1,65.91,51.9Z"/><path class="cls-2" d="M.09,34.7C.43,38.78,1.29,42.77,2,46.79A26,26,0,0,1,.09,34.7Z"/><path class="cls-2" d="M3.49,20.07c.36.74-.21,1.3-.43,1.91a53.61,53.61,0,0,0-2,6.8,1.31,1.31,0,0,1-.6,1A24.87,24.87,0,0,1,3.49,20.07Z"/><path class="cls-2" d="M58.15,61.63a7.44,7.44,0,0,1,3.4-3.41A10.65,10.65,0,0,1,58.15,61.63Z"/><path class="cls-2" d="M61.35,12.05a4.84,4.84,0,0,1-2.84-2.78A7.36,7.36,0,0,1,61.35,12.05Z"/><path class="cls-2" d="M54.11,5.89a4.12,4.12,0,0,1-3.43-2A12.21,12.21,0,0,1,54.11,5.89Z"/><path class="cls-2" d="M14.32,62.63c.35,1,1.71,1.07,2,2.12a6.82,6.82,0,0,1-3.06-2.07l.22-.23.85.2Z"/><path class="cls-2" d="M1.92,46.74A6,6,0,0,1,3.5,50.51,11,11,0,0,1,1.92,46.74Z"/><path class="cls-2" d="M9,11.84c.06,1.27-.83,1.78-1.79,2.22A6.22,6.22,0,0,1,9,11.84Z"/><path class="cls-2" d="M5.12,17.08c-.11,1-.06,2.09-1.36,2.42A5.55,5.55,0,0,1,5.12,17.08Z"/><path class="cls-2" d="M6.48,15c-.13.91-.3,1.8-1.37,2.08A4.17,4.17,0,0,1,6.48,15Z"/><path class="cls-2" d="M11.59,61.21c.6,0,1.08.56,1.72.42h0l.19.83-.22.23C12.69,62.21,11.74,62.16,11.59,61.21Z"/><path class="cls-2" d="M10.54,10.25c-.1.9-.35,1.64-1.5,1.49A4.2,4.2,0,0,1,10.54,10.25Z"/><path class="cls-2" d="M.27,30.34a1.12,1.12,0,0,1-.14,1.8A3.08,3.08,0,0,1,.27,30.34Z"/><path class="cls-2" d="M3.77,51c.67.3,1.1.73.88,1.54A2.5,2.5,0,0,1,3.77,51Z"/><path class="cls-2" d="M57.25,8.19a1,1,0,0,1-1.14-.93A1.39,1.39,0,0,1,57.25,8.19Z"/><path class="cls-2" d="M64.73,53.93c-.14-.69.25-1,.81-1.3A1.68,1.68,0,0,1,64.73,53.93Z"/><path class="cls-2" d="M6.52,55.49a.94.94,0,0,1,.9,1.15A1.42,1.42,0,0,1,6.52,55.49Z"/><path class="cls-2" d="M65.58,18a1.11,1.11,0,0,1-.84-1.32A1.69,1.69,0,0,1,65.58,18Z"/><path class="cls-2" d="M56.12,7.27c-.54.05-.92-.12-1-.71A1.08,1.08,0,0,1,56.12,7.27Z"/><path class="cls-2" d="M62.94,14.05c-.6-.07-.77-.46-.73-1A1.14,1.14,0,0,1,62.94,14.05Z"/><path class="cls-2" d="M64.12,15.65c-.64-.06-.81-.47-.76-1A1.24,1.24,0,0,1,64.12,15.65Z"/><path class="cls-2" d="M64.06,55a.85.85,0,0,1,.69-1.09A1.23,1.23,0,0,1,64.06,55Z"/><path class="cls-2" d="M63.32,55.93a.81.81,0,0,1,.78-1C64,55.37,63.85,55.8,63.32,55.93Z"/><path class="cls-2" d="M5.78,54.42a.87.87,0,0,1,.75,1.08A1.34,1.34,0,0,1,5.78,54.42Z"/><path class="cls-2" d="M62.18,57.51c0-.53.14-.92.74-1A1.17,1.17,0,0,1,62.18,57.51Z"/><path class="cls-2" d="M7.85,57.21c.61,0,.77.44.75,1A1.1,1.1,0,0,1,7.85,57.21Z"/><path class="cls-2" d="M4.63,52.55c.66.08.79.51.7,1.08A1.22,1.22,0,0,1,4.63,52.55Z"/><path class="cls-2" d="M64.77,16.7c-.6-.13-.87-.47-.66-1.09A1.2,1.2,0,0,1,64.77,16.7Z"/><path class="cls-2" d="M52.78,65.5c.14-.6.48-.85,1.09-.62A1.35,1.35,0,0,1,52.78,65.5Z"/><path class="cls-2" d="M56.46,63c.07-.59.45-.76,1-.74A1.07,1.07,0,0,1,56.46,63Z"/><path class="cls-2" d="M55.12,6.57c-.55.07-.94-.09-1-.7A1,1,0,0,1,55.12,6.57Z"/><path class="cls-2" d="M54.86,64.19a.79.79,0,0,1,1-.77A1.22,1.22,0,0,1,54.86,64.19Z"/><path class="cls-2" d="M53.9,64.89c0-.72.43-.82,1-.74A1.4,1.4,0,0,1,53.9,64.89Z"/><path class="cls-2" d="M7.19,14a1,1,0,0,1-.73,1A1.34,1.34,0,0,1,7.19,14Z"/><path class="cls-2" d="M66.3,19.33A1.14,1.14,0,0,1,65.59,18,1.68,1.68,0,0,1,66.3,19.33Z"/><path class="cls-2" d="M8.6,58.18c.46,0,.66.25.66.7A.78.78,0,0,1,8.6,58.18Z"/><path class="cls-2" d="M9.26,58.87c.45,0,.69.24.66.71A.76.76,0,0,1,9.26,58.87Z"/><path class="cls-2" d="M9.91,59.58c.48,0,.7.21.69.68A.78.78,0,0,1,9.91,59.58Z"/><path class="cls-2" d="M10.59,60.25a.69.69,0,0,1,.75.73A1,1,0,0,1,10.59,60.25Z"/><path class="cls-2" d="M58.52,9.29a.63.63,0,0,1-.72-.66A.72.72,0,0,1,58.52,9.29Z"/><path class="cls-2" d="M62.21,13.06a.71.71,0,0,1-.7-.81A1.07,1.07,0,0,1,62.21,13.06Z"/><path class="cls-2" d="M57.43,62.26a.62.62,0,0,1,.73-.64A.81.81,0,0,1,57.43,62.26Z"/><path class="cls-2" d="M61.55,58.23a.6.6,0,0,1,.63-.73A.8.8,0,0,1,61.55,58.23Z"/><path class="cls-2" d="M51.43,66.23a.74.74,0,0,1,1-.52A.91.91,0,0,1,51.43,66.23Z"/><path class="cls-2" d="M62.91,56.53a.53.53,0,0,1,.45-.64A.54.54,0,0,1,62.91,56.53Z"/><path class="cls-2" d="M7.38,56.6c.39,0,.51.27.48.62A.52.52,0,0,1,7.38,56.6Z"/><path class="cls-2" d="M63.41,14.66a.5.5,0,0,1-.49-.62A.58.58,0,0,1,63.41,14.66Z"/><path class="cls-2" d="M57.81,8.63a.52.52,0,0,1-.62-.48A.54.54,0,0,1,57.81,8.63Z"/><path class="cls-2" d="M55.83,63.45a.53.53,0,0,1,.64-.46A.56.56,0,0,1,55.83,63.45Z"/><path class="cls-2" d="M5.31,53.62c.3,0,.36.1.21.35Z"/><path class="cls-2" d="M67.08,20.89a.42.42,0,0,1-.27-.51Z"/><path class="cls-2" d="M66.83,20.29c-.36.12-.34,0-.2-.28Z"/><path class="cls-2" d="M16.31,64.72l.39.32C16.47,65.06,16.29,65,16.31,64.72Z"/><path class="cls-2" d="M52.38,65.72a.38.38,0,0,1,.44-.28C52.77,65.69,52.6,65.75,52.38,65.72Z"/><path class="cls-3" d="M8.14,47.68c-.11-.44-.21-.87-.32-1.31-.58-1.84-1.16-3.69-1.73-5.53-1-6.9-.24-13.5,3.15-19.73a29.55,29.55,0,0,1,29.92-15c.67.1,1.35.13,2,.2l5.06,1.63a2.31,2.31,0,0,0,1.34.28,21.47,21.47,0,0,0,1.8,1.25,26.8,26.8,0,0,1,6.24,4.62c7.11,7.23,10.18,15.9,8.57,26A28.43,28.43,0,0,1,51.42,59.81c-.49.33-1.44.46-.61,1.56.4.54-.06,1.53-.93,1.91.55-2,.49-2.1-1.7-2a12.61,12.61,0,0,0-3,.59,5.08,5.08,0,0,1-6-2.14c-.22-.31-.33-.76-.85-.65a.78.78,0,0,0-.1.79c1.37,4.67,5.09,6.47,10.07,4.85-.07,1.31-1.93,1.09-2,2.38a31,31,0,0,1-21.06.59c-.25-.63-.81-.59-1.34-.6l0,0c-.17-1.21-1.85-1.17-2-2.41A7,7,0,0,0,30,63.39c1.4-1.27,1.79-2.49,1.31-3.89-1.94,2.89-4.54,3-7.49,2a11.69,11.69,0,0,0-2.67-.27c-1.15-.11-1.39.42-1,1.41-.53-.12-.88-.61-.76-1,.46-1.58-.75-2-1.67-2.68-.68-.5-1.33-1-2-1.59C12.49,54.69,10.28,51.2,8.14,47.68Zm17.29,4.89a.42.42,0,0,0,.48-.32l.72-.44c.8-.53.33-1.28.34-2a7.94,7.94,0,0,1,2.2-4.46,14.78,14.78,0,0,0,1.74-2.28,2.84,2.84,0,0,0-.09-3.18,20.89,20.89,0,0,1-2.4,3.1,6.24,6.24,0,0,0-2.07,6.36l-.81.35L25.23,49c.38-.47,0-.72-.27-1a14.36,14.36,0,0,1-.17-5.19,9.89,9.89,0,0,0-.36-5c-.17-.44-.32-1.14-1-.34l-.77,0a41,41,0,0,0,.8-5.61c0-.68,0-1.48-1.08-.87l-.37-.35c.64-2.14,1.53-4.23,1.46-6.54,0-.86-.2-1.28-1.15-.86-.39.17-.72,1-1.21.34-.34-.49.33-.87.58-1.28,1.42-2.25,2.7-4.55,2.78-7.3.13-.32.27-.66.72-.53s.64.6.64,1.08a15.67,15.67,0,0,1-.75,3.29c-.36,1.53-2.17,3-.32,4.68.09.08,0,.33,0,.5a16.34,16.34,0,0,1-.6,4.51c-.14.56-.93,1.06.08,1.67s1.24-.11,1.68-.54c3.21-3.17,6.4-6.36,9.63-9.51a2.28,2.28,0,0,0,.7-2.14l-.12-.76c.55.48,1.06,1.13,1.85.33Q41.72,14,45.39,10.3c.35-.35.61-.86-.14-1C43.47,9,42.11,7.17,40,7.88c-.38.13-1-.24-1.43-.42-2.06-.79-4.25.5-6.31-.4,0,0-.11,0-.15.06a3.41,3.41,0,0,1-3.18.66,2.38,2.38,0,0,0-1.59.52c-1.9,1.21-4.44,1.07-6.07,2.87-.09.1-.32.11-.49.11a2.39,2.39,0,0,0-1.93,1.22,2.5,2.5,0,0,1-1.22,1.14c-2.45.83-3.11,3.55-5.12,4.85-.19.12-.19.52-.27.79a2.29,2.29,0,0,1-.92,1.39,3.19,3.19,0,0,0-1.45,2.55,3.87,3.87,0,0,1-.75,1.86,10.22,10.22,0,0,0-1.72,6c0,2.2-.47,4.41-.18,6.73.26,2.11,1.46,4.1,1.07,6.32a1.38,1.38,0,0,0,1,1.41c.67.24,1.05-.23,1.46-.61l1.88-1.71.56.18a17.42,17.42,0,0,0,5.82,7.23c.91.62,1.53,1.66,2.71,1.89L20.69,53c-.8-.23-1.6-.52-2.42-.68-.62-.13-1.49-.59-1.85.1s.25,1.4.8,1.9a6.83,6.83,0,0,0,7.23,1.5,3.91,3.91,0,0,1,4.55.88c-.44-2.27-2-2.71-3.51-3.14l-.2-.84A.18.18,0,0,1,25.43,52.57ZM47.34,36.8l-.72.37c-.6-.36-.64.16-.77.5a9.44,9.44,0,0,0-.47,4.82c.49,3.12.28,6.08-1.75,8.66-.45.57-.39.84.32,1a4.22,4.22,0,0,1,1,.6v.69c-.84.26-1.8.14-2.48.84-.25.27-.7.55-.52,1s.64.2,1,.12a12,12,0,0,1,1.48-.15l.47.18.33.1.33.13a3.61,3.61,0,0,0,1.88.37,1.35,1.35,0,0,0,1.19.1c2.18-.17,4-.9,5.18-2.93.19-.33.43-.72.11-1.08s-.64-.14-1-.06c-1.09.26-2.18.55-3.26.82-.39-.12-1,0-.76-.77,6.16-3.37,9.18-8.89,10.11-15.55a20,20,0,0,0-11.82-21c-.43-.2-1-.69-1.37-.24a1.6,1.6,0,0,0-.1,1.61,20.46,20.46,0,0,0,3.56,6.63.71.71,0,0,1-.62.64l-.57-.45c-.35-.35-.7-.88-1.25-.54s-.26.82-.25,1.26a10.54,10.54,0,0,0,1.29,5.24l.15.56-.81.42-.3.32a1.92,1.92,0,0,0-.24,1.36l.12.52.26,2.21.13.42.08.59ZM35.07,38.51a1,1,0,0,0,.69,1c.14.41.55.52.83.77,3,2.75,7.43,4.62,6.46,10a7.89,7.89,0,0,0-.31-7.84,14.52,14.52,0,0,0-4.26-4.29,10.06,10.06,0,0,1-3.49-4c0-.34,0-.78-.36-.82s-.72.4-.89.83A2.63,2.63,0,0,0,33,35.35l-.24.45-.44,1.28a1.11,1.11,0,0,0-.21,1.09l0,1.38a.74.74,0,0,0,.2.73C32.64,42.05,34,43.2,35,44.5a8.13,8.13,0,0,1,2.16,4,3.76,3.76,0,0,1-3,4.37,3.9,3.9,0,0,1-4.54-3.11c-.1-.54.16-1.16-.28-1.7-1.73,3.81,1.88,8.4,5.83,8,5.94-.53,7.81-6.1,4.94-10.31a22.1,22.1,0,0,0-3.77-4.13,7.21,7.21,0,0,1-2.27-3.44l.66-.36C34.77,38.09,34.76,38.39,35.07,38.51Zm.31,18.19-.55,0c-.48,2.23-1,4.46-1.42,6.71a5.66,5.66,0,0,0,.85,3.71c.66,1.19,1.19.94,1.75,0a5.49,5.49,0,0,0,.76-2.22C37,62,35.82,59.44,35.38,56.7Zm8.3-15.27a2.19,2.19,0,0,0-.17-2.16c-.93-2.18-2.88-3.59-4.23-5.47-.38-.54-.74-.33-.82.34a2.83,2.83,0,0,0,.82,2.15C40.69,38,42.18,39.69,43.68,41.43ZM31,36.32a4.12,4.12,0,0,0-2.53-3c-.24-.11-.52-.34-.76-.08s-.15.6,0,.91c.66,1.14,1.85,1.78,2.63,2.82.08.11.32.23.41.18C31.12,37,31,36.71,31,36.32Zm5.79-2c.47-1.59,1.92-2.91,1.41-5.09C36.7,30.86,35.78,32.33,36.83,34.33ZM40.06,20c-.55-.24-.52-1.23-1.09-1.1s-1.26.05-1.25,1.16.94.74,1.27,1.21Zm-5,4.6c-.35.42-1.07.53-.93,1.24s.64.8,1.24.81c.85,0,.65-.73.67-1.08C36.1,25,35.5,24.83,35.08,24.56Z"/><path class="cls-4" d="M46.26,67.07c.11-1.29,2-1.07,2-2.38h0l.67-.47.52-.56.51-.35-.12,0c.87-.38,1.33-1.37.93-1.91-.83-1.1.12-1.23.61-1.56A28.43,28.43,0,0,0,64.2,40.07c1.61-10.08-1.46-18.75-8.57-26a26.8,26.8,0,0,0-6.24-4.62,21.47,21.47,0,0,1-1.8-1.25c3.14-3.25,2.27-3.73,6.32-1A32.44,32.44,0,0,1,68.4,29.79,32.8,32.8,0,0,1,60,58.14,29.56,29.56,0,0,1,46.26,67.07Z"/><path class="cls-4" d="M21.83,64.63c.16,1.24,1.84,1.2,2,2.41-2.77-.51-5.08-2-7.44-3.43-.65-.39-1.18-1.1-2.08-1l0,0c0-.69-.41-1-1-1h0C11.19,59.18,8.78,57,7,54.25c-2.24-3.45-2.36-3.38.62-6.17a5.39,5.39,0,0,1,.54-.4c2.14,3.52,4.35,7,7.54,9.72.64.55,1.29,1.09,2,1.59.92.67,2.13,1.1,1.67,2.68-.12.38.23.87.76,1l0,0,.36.64h0l.37.69,0,0,.36.37,0,0,.7.37Z"/><path class="cls-2" d="M6.09,40.84c.57,1.84,1.15,3.69,1.73,5.53-1.18-.22-1.62.83-2.34,1.38s-1.37.78-1.89-.42c-1.09-2.51-1.08-2.91.84-4.84C5,41.93,5.53,41.39,6.09,40.84Z"/><path class="cls-2" d="M46.25,7.94,41.19,6.31c.57-.7,1.09-1.45,1.71-2.09a4.09,4.09,0,0,1,5.25.06c.6.6.22,1-.18,1.43C47.34,6.4,46.42,6.88,46.25,7.94Z"/><path class="cls-4" d="M23.86,67.06c.53,0,1.09,0,1.34.6A1.42,1.42,0,0,1,23.86,67.06Z"/><path class="cls-1" d="M13.3,61.62c.63.06,1,.34,1,1l-.85-.2C13.43,62.17,13.36,61.89,13.3,61.62Z"/><path class="cls-2" d="M36.33,18.06a2.28,2.28,0,0,1-.7,2.14c-3.23,3.15-6.42,6.34-9.63,9.51-.44.43-.77,1.1-1.68.54s-.22-1.11-.08-1.67a16.34,16.34,0,0,0,.6-4.51c0-.17.05-.42,0-.5-1.85-1.7,0-3.15.32-4.68a15.67,15.67,0,0,0,.75-3.29c0-.48-.11-.92-.64-1.08s-.59.21-.72.53a12.94,12.94,0,0,0-7.85,4.82c-5.73,6.69-7.15,14.35-3.91,22.7l-.07.63L10.8,44.91c-.41.38-.79.85-1.46.61a1.38,1.38,0,0,1-1-1.41c.39-2.22-.81-4.21-1.07-6.32-.29-2.32.19-4.53.18-6.73a10.22,10.22,0,0,1,1.72-6,3.87,3.87,0,0,0,.75-1.86,3.19,3.19,0,0,1,1.45-2.55,2.29,2.29,0,0,0,.92-1.39c.08-.27.08-.67.27-.79,2-1.3,2.67-4,5.12-4.85a2.5,2.5,0,0,0,1.22-1.14,2.39,2.39,0,0,1,1.93-1.22c.17,0,.4,0,.49-.11,1.63-1.8,4.17-1.66,6.07-2.87a2.38,2.38,0,0,1,1.59-.52,3.41,3.41,0,0,0,3.18-.66s.11-.08.15-.06c2.06.9,4.25-.39,6.31.4.47.18,1.05.55,1.43.42,2.1-.71,3.46,1.12,5.24,1.43.75.13.49.64.14,1Q41.73,14,38.06,17.63c-.79.8-1.3.15-1.85-.33-.2-.46,0-.7.42-.88.58-.1,1.18-.16,1.52-.9a2.05,2.05,0,0,0-1.68.17c-.1,0-.24,0-.31-.11-.73-.84-1.4-.59-2.08.09-.2.2-.83.28-.42.63s.07,2.06,1.6,1.35C35.5,17.54,36,17.91,36.33,18.06Zm-6.44,2c.79.83,1.58,1.39,2.45.56a1,1,0,0,0-.17-1.43C31,18.4,30.57,19.42,29.89,20.09Z"/><path class="cls-5" d="M12.75,42.57c-3.24-8.35-1.82-16,3.91-22.7a12.94,12.94,0,0,1,7.85-4.82c-.08,2.75-1.36,5.05-2.78,7.3-.25.41-.92.79-.58,1.28.49.7.82-.17,1.21-.34.95-.42,1.13,0,1.15.86.07,2.31-.82,4.4-1.46,6.54-3.16,4-4.52,8.76-3.28,11.59.54-.45.27-1.05.26-1.56a12.49,12.49,0,0,1,1.06-5.6c.68-1.4,1.55-2.72,2.33-4.08,1.08-.61,1.07.19,1.08.87a41,41,0,0,1-.8,5.61c-.79,1.86-1.41,3.74-.84,5.79a19.85,19.85,0,0,1,1.61-5.81c.64-.8.79-.1,1,.34a9.89,9.89,0,0,1,.36,5A14.36,14.36,0,0,0,25,48c-.1.39-.22.78.27,1,.1.23.21.47.31.71-.13,1,.89,1.29,1.09,2.06l-.72.44c-.27-.07-.39.1-.48.32a.18.18,0,0,0-.14.1l-.45.08a1,1,0,0,0-1.35.06l-.75-.25a.77.77,0,0,0-.3-1.13l-3.37-2A3.13,3.13,0,0,0,17.78,47l-.38.33c.16,1,1,1.51,1.68,2.06l0,1.21a17.42,17.42,0,0,1-5.82-7.23A.76.76,0,0,0,12.75,42.57Zm1.62-2.77.19.42a11.29,11.29,0,0,0,2.57,6.23c-3.9-8.17-2.65-15.49,3.51-22.08A17,17,0,0,0,14.37,39.8Z"/><path class="cls-5" d="M49.33,23.6A20.46,20.46,0,0,1,45.77,17a1.6,1.6,0,0,1,.1-1.61c.42-.45.94,0,1.37.24a20,20,0,0,1,11.82,21c-.93,6.66-4,12.18-10.11,15.55-1.32.3-2.53,1.29-4,.68a4.22,4.22,0,0,0-1-.6c-.71-.2-.77-.47-.32-1,2-2.58,2.24-5.54,1.75-8.66a9.44,9.44,0,0,1,.47-4.82c.13-.34.17-.86.77-.5a15,15,0,0,1,1.64,5.67c.8-2.15-.5-4-.66-6l-.28-.71c0-.2-.06-.4-.08-.59s-.09-.28-.13-.42c-.09-.74-.18-1.47-.26-2.21l-.12-.52A1.92,1.92,0,0,1,47,31.05h.33a14.35,14.35,0,0,1,4.13,10.8c1-3.12,0-6.47-3.35-11.53l-.15-.56c-.15-1.55-.25-3.11-.46-4.66-.1-.66,0-1.09.67-1.3l.57.45c.64,1.32,2.12,1.78,3,2.94,4.22,5.86,4.67,12,1.65,18.49l-.2.44c.94-.33,1.13-1.24,1.45-2C57.69,37.06,55.7,29.35,49.33,23.6ZM51,49l-.34.34a.87.87,0,0,0-.08.1s.06.07.07.06a.34.34,0,0,0,.09-.08l.34-.35.34-.32.7-.66c.34-.32.85-.54.74-1.19-.69,0-.69.61-.88,1a1,1,0,0,0-.65.73Zm-.64-3.35a1.34,1.34,0,0,0-.33,1l-.11.06.09-.08a1.23,1.23,0,0,0,.34-1c.31-.11.34-.38.36-.66a1.08,1.08,0,0,0,.46-1.39c-.58.41-.41.93-.47,1.38Zm-3,1.77a2.33,2.33,0,0,0,.67-2.15,3.48,3.48,0,0,0-.83,2c-.25.37-.66.68-.61,1.27C47.28,48.35,47.26,47.85,47.39,47.44Zm2,0-.11.05.11,0Z"/><path class="cls-5" d="M35,34.11a10.06,10.06,0,0,0,3.49,4,14.52,14.52,0,0,1,4.26,4.29,7.89,7.89,0,0,1,.31,7.84c1-5.42-3.43-7.29-6.46-10-.28-.25-.69-.36-.83-.77a.86.86,0,0,0-.69-1c-.31-.12-.3-.42-.36-.68s0-1-.52-.83c-.68.19-.5.74-.14,1.19a7.21,7.21,0,0,0,2.27,3.44,22.1,22.1,0,0,1,3.77,4.13c2.87,4.21,1,9.78-4.94,10.31-3.95.35-7.56-4.24-5.83-8,.44.54.18,1.16.28,1.7a3.9,3.9,0,0,0,4.54,3.11,3.76,3.76,0,0,0,3-4.37,8.13,8.13,0,0,0-2.16-4c-1.07-1.3-2.38-2.45-2.73-4.22-.06-.24-.13-.49-.2-.73,0-.46,0-.92,0-1.38a1.32,1.32,0,0,0,.21-1.09c.15-.42.3-.85.44-1.28l.24-.45a2.63,2.63,0,0,1,.78-1.23Z"/><path class="cls-5" d="M49.49,63.66l-.52.56-.67.47h0c-5,1.62-8.7-.18-10.07-4.85a.78.78,0,0,1,.1-.79c.52-.11.63.34.85.65a5.08,5.08,0,0,0,6,2.14,12.61,12.61,0,0,1,3-.59c2.19-.07,2.25,0,1.7,2l.12,0C49.74,63.29,49.61,63.46,49.49,63.66Z"/><path class="cls-5" d="M20.08,62.66c-.36-1-.12-1.52,1-1.41a11.69,11.69,0,0,1,2.67.27c2.95,1,5.55.87,7.49-2,.48,1.4.09,2.62-1.31,3.89a7,7,0,0,1-8.13,1.24v.05a.57.57,0,0,0-.7-.37l0,0c0-.26-.1-.39-.36-.37l0,0a.6.6,0,0,0-.37-.69h0l-.36-.64Z"/><path class="cls-5" d="M25.49,53.51c1.54.43,3.07.87,3.51,3.14a3.91,3.91,0,0,0-4.55-.88,6.83,6.83,0,0,1-7.23-1.5c-.55-.5-1.16-1.21-.8-1.9s1.23-.23,1.85-.1c.82.16,1.62.45,2.42.68C22.22,53.73,23.86,53.56,25.49,53.51Z"/><path class="cls-5" d="M49.71,52.88c1.08-.27,2.17-.56,3.26-.82.31-.08.69-.23,1,.06s.08.75-.11,1.08c-1.13,2-3,2.76-5.18,2.93a1.38,1.38,0,0,0-1.19-.1,3.7,3.7,0,0,1-1.88-.36l-.33-.14-.33-.1-.47-.18A12,12,0,0,0,43,55.4c-.37.08-.8.37-1-.12s.27-.69.52-1c.68-.7,1.64-.58,2.48-.84l.67.12a.81.81,0,0,0,1,0l1.7-.13.33-.13Z"/><path class="cls-5" d="M35.38,56.7c.44,2.74,1.66,5.33,1.39,8.2A5.49,5.49,0,0,1,36,67.12c-.56,1-1.09,1.24-1.75,0a5.66,5.66,0,0,1-.85-3.71c.4-2.25.94-4.48,1.42-6.71Z"/><path class="cls-2" d="M49.33,23.6c6.37,5.75,8.36,13.46,5.24,20.52-.32.75-.51,1.66-1.44,2,.06-.15.13-.29.19-.44,3-6.48,2.57-12.63-1.65-18.49-.84-1.16-2.32-1.62-3-2.94A.71.71,0,0,0,49.33,23.6Z"/><path class="cls-5" d="M26.35,49.4A6.24,6.24,0,0,1,28.42,43a20.89,20.89,0,0,0,2.4-3.1,2.84,2.84,0,0,1,.09,3.18,14.78,14.78,0,0,1-1.74,2.28A7.94,7.94,0,0,0,27,49.86C26.56,50,26.6,49.5,26.35,49.4Z"/><path class="cls-5" d="M43.68,41.43c-1.5-1.74-3-3.41-4.4-5.14a2.83,2.83,0,0,1-.82-2.15c.08-.67.44-.88.82-.34,1.35,1.88,3.3,3.29,4.23,5.47A2.19,2.19,0,0,1,43.68,41.43Z"/><path class="cls-2" d="M48.08,30.31c3.4,5.06,4.4,8.41,3.35,11.53A14.35,14.35,0,0,0,47.3,31l0-.31Z"/><path class="cls-2" d="M22.42,31c-.78,1.36-1.65,2.68-2.33,4.08A12.49,12.49,0,0,0,19,40.72c0,.51.28,1.11-.26,1.56-1.24-2.83.12-7.6,3.28-11.59Z"/><path class="cls-1" d="M36.63,16.42c-.38.18-.62.42-.42.88l.12.76c-.36-.15-.83-.52-1.07-.41-1.53.71-1.09-.9-1.6-1.35s.22-.43.42-.63c.68-.68,1.35-.93,2.08-.09.07.07.21.07.31.11C37,15.82,36.89,16.11,36.63,16.42Z"/><path class="cls-1" d="M31,36.32c0,.39.08.71-.22.85-.09,0-.33-.07-.41-.18-.78-1-2-1.68-2.63-2.82-.18-.31-.3-.63,0-.91s.52,0,.76.08A4.12,4.12,0,0,1,31,36.32Z"/><path class="cls-1" d="M36.83,34.33c-1-2-.13-3.47,1.41-5.09C38.75,31.42,37.3,32.74,36.83,34.33Z"/><path class="cls-1" d="M19.06,50.61l0-1.21h0l3.37,2a.77.77,0,0,1,.3,1.13l-1-.06C20.59,52.27,20,51.23,19.06,50.61Z"/><path class="cls-1" d="M48.14,23.79c-.65.21-.77.64-.67,1.3.21,1.55.31,3.11.46,4.66a10.54,10.54,0,0,1-1.29-5.24c0-.44-.17-1,.25-1.26S47.79,23.44,48.14,23.79Z"/><path class="cls-2" d="M23.47,37.5a19.85,19.85,0,0,0-1.61,5.81c-.57-2.05.05-3.93.84-5.79Z"/><path class="cls-1" d="M40.06,20,39,21.23c-.33-.47-1.26-.08-1.27-1.21S38.53,19,39,18.86,39.51,19.72,40.06,20Z"/><path class="cls-2" d="M47.6,36.86c.16,2,1.46,3.83.66,6a15,15,0,0,0-1.64-5.67l.72-.37Z"/><path class="cls-1" d="M35.08,24.56c.42.27,1,.46,1,1,0,.35.18,1.1-.67,1.08-.6,0-1.12-.15-1.24-.81S34.73,25,35.08,24.56Z"/><path class="cls-2" d="M48.29,53.46l-1.7.13h-1l-.67-.12v-.69c1.48.61,2.69-.38,4-.68-.26.75.37.65.76.77l-1.08.45Z"/><path class="cls-2" d="M21.77,52.5l1,.06.75.25a.93.93,0,0,0,1.35-.06l.45-.08c.06.28.13.56.2.84-1.63.05-3.27.22-4.8-.56Z"/><path class="cls-2" d="M26.35,49.4c.25.1.21.59.62.46,0,.67.46,1.42-.34,2-.2-.77-1.22-1.11-1.09-2.06Z"/><path class="cls-1" d="M34.05,38.19c-.36-.45-.54-1,.14-1.19.52-.14.49.46.52.83Z"/><path class="cls-1" d="M35,34.11H33.74c.17-.43.38-.89.89-.83S35,33.77,35,34.11Z"/><path class="cls-1" d="M35.07,38.51a.86.86,0,0,1,.69,1A1,1,0,0,1,35.07,38.51Z"/><path class="cls-2" d="M25.23,49c-.49-.23-.37-.62-.27-1C25.24,48.32,25.61,48.57,25.23,49Z"/><path class="cls-1" d="M12.75,42.57a.76.76,0,0,1,.49.81l-.56-.18C12.7,43,12.72,42.78,12.75,42.57Z"/><path class="cls-1" d="M32.28,37.08a1.32,1.32,0,0,1-.21,1.09A1.11,1.11,0,0,1,32.28,37.08Z"/><path class="cls-1" d="M47.44,56a1.38,1.38,0,0,1,1.19.1A1.35,1.35,0,0,1,47.44,56Z"/><path class="cls-2" d="M25.43,52.57c.09-.22.21-.39.48-.32A.42.42,0,0,1,25.43,52.57Z"/><path class="cls-1" d="M47.6,36.86l-.26-.06c0-.22,0-.43,0-.65Z"/><path class="cls-1" d="M32.09,39.55c.07.24.14.49.2.73A.74.74,0,0,1,32.09,39.55Z"/><path class="cls-1" d="M47.27,30.73l0,.31H47Z"/><path class="cls-1" d="M47.11,35.14c0,.14.08.28.13.42C47.19,35.42,47.15,35.28,47.11,35.14Z"/><path class="cls-1" d="M44.43,55.25l.47.18Z"/><path class="cls-1" d="M46.73,32.41l.12.52Z"/><path class="cls-1" d="M45.23,55.53l.33.14Z"/><path class="cls-1" d="M33,35.35l-.24.45Z"/><path class="cls-3" d="M48.3,64.69l.67-.47Z"/><path class="cls-3" d="M49.49,63.66c.12-.2.25-.37.51-.35Z"/><path class="cls-3" d="M20.45,63.32a.6.6,0,0,1,.37.69C20.69,63.78,20.57,63.55,20.45,63.32Z"/><path class="cls-3" d="M20.1,62.69l.36.64Z"/><path class="cls-3" d="M21.12,64.31a.57.57,0,0,1,.7.37Z"/><path class="cls-3" d="M20.78,64c.26,0,.38.11.36.37Z"/><path class="cls-1" d="M29.89,20.09c.68-.67,1.14-1.69,2.28-.87a1,1,0,0,1,.17,1.43C31.47,21.48,30.68,20.92,29.89,20.09Z"/><path class="cls-3" d="M36.63,16.42c.26-.31.4-.6-.16-.73a2.05,2.05,0,0,1,1.68-.17C37.81,16.26,37.21,16.32,36.63,16.42Z"/><path class="cls-2" d="M14.37,39.8a17,17,0,0,1,6.27-15.43C14.48,31,13.23,38.28,17.13,46.45a11.29,11.29,0,0,1-2.57-6.23C14.49,40.08,14.43,39.94,14.37,39.8Z"/><path class="cls-1" d="M19.08,49.4c-.73-.55-1.52-1-1.68-2.06l.38-.33a3.13,3.13,0,0,1,1.29,2.39Z"/><path class="cls-1" d="M24.84,52.75a.93.93,0,0,1-1.35.06A1,1,0,0,1,24.84,52.75Z"/><path class="cls-2" d="M17.78,47l-.38.33Z"/><path class="cls-1" d="M14.37,39.8c.06.14.12.28.19.42C14.49,40.08,14.43,39.94,14.37,39.8Z"/><path class="cls-1" d="M47.23,47.31a3.48,3.48,0,0,1,.83-2,2.33,2.33,0,0,1-.67,2.15Z"/><path class="cls-2" d="M50.69,45c.06-.45-.11-1,.47-1.38A1.08,1.08,0,0,1,50.7,45Z"/><path class="cls-1" d="M52,48c.19-.42.19-1,.88-1,.11.65-.4.87-.74,1.19Z"/><path class="cls-1" d="M47.39,47.44c-.13.41-.11.91-.77,1.15,0-.59.36-.9.61-1.27Z"/><path class="cls-1" d="M51.32,48.68A1,1,0,0,1,52,48l.14.16-.7.66Z"/><path class="cls-2" d="M50,46.69a1.34,1.34,0,0,1,.33-1v0a1.23,1.23,0,0,1-.34,1Z"/><path class="cls-2" d="M50.35,45.67c.11-.23.22-.46.34-.69h0c0,.28-.05.55-.36.66Z"/><polygon class="cls-2" points="49.36 47.47 49.36 47.57 49.25 47.52 49.36 47.47"/><path class="cls-1" d="M53.32,45.67c-.06.15-.13.29-.19.44C53.19,46,53.26,45.82,53.32,45.67Z"/><path class="cls-1" d="M50.74,49.44a.7.7,0,0,1-.1.08s-.07-.05-.07-.06a.87.87,0,0,1,.08-.1Z"/><path class="cls-1" d="M50.65,49.36,51,49l.08.07-.33.35Z"/><path class="cls-1" d="M51,49l.33-.34.09.09c-.12.1-.23.21-.34.32Z"/><polygon class="cls-2" points="50.01 46.67 49.91 46.75 50.02 46.69 50.01 46.67"/><path class="cls-1" d="M45.61,53.6h1A.81.81,0,0,1,45.61,53.6Z"/><path class="cls-1" d="M48.29,53.46l.34-.13Z"/></g></g></svg>