<svg 
 xmlns="http://www.w3.org/2000/svg"
 xmlns:xlink="http://www.w3.org/1999/xlink"
 width="144px" height="37px">
<path fill-rule="evenodd"  fill="rgb(242, 242, 242)"
 d="M141.43,5.969 C139.642,5.969 138.507,4.833 138.507,3.432 C138.507,2.22 139.642,0.896 141.43,0.896 C142.455,0.896 143.579,2.22 143.579,3.432 C143.579,4.833 142.455,5.969 141.43,5.969 ZM141.43,1.244 C139.821,1.244 138.841,2.213 138.841,3.432 C138.841,4.641 139.821,5.634 141.43,5.634 C142.250,5.634 143.232,4.641 143.232,3.432 C143.232,2.213 142.250,1.244 141.43,1.244 ZM141.437,3.732 L142.214,4.892 L141.735,4.892 L140.981,3.744 L140.456,3.744 L140.456,4.892 L140.74,4.892 L140.74,1.986 L141.257,1.986 C141.747,1.986 142.178,2.332 142.178,2.870 C142.178,3.517 141.604,3.732 141.437,3.732 ZM141.257,2.321 L140.456,2.321 L140.456,3.397 L141.257,3.397 C141.508,3.397 141.783,3.170 141.783,2.870 C141.783,2.548 141.508,2.321 141.257,2.321 ZM137.691,36.308 L133.969,36.308 C133.327,36.308 133.28,36.51 132.728,35.451 L124.251,16.662 L124.122,16.662 L115.734,35.451 C115.562,35.880 115.175,36.308 114.492,36.308 L110.769,36.308 C110.125,36.308 109.784,35.752 110.41,35.197 L123.353,6.387 C123.481,6.133 123.693,5.916 124.81,5.916 L124.509,5.916 C124.937,5.916 125.109,6.133 125.237,6.387 L138.419,35.197 C138.677,35.752 138.335,36.308 137.691,36.308 ZM86.771,36.696 C78.253,36.696 71.405,29.931 71.405,21.371 C71.405,12.811 78.253,5.916 86.771,5.916 C90.627,5.916 94.306,7.415 97.218,9.897 C97.559,10.242 97.601,10.754 97.259,11.96 L94.606,13.881 C94.262,14.222 93.878,14.222 93.492,13.881 C91.650,12.253 89.381,11.396 87.31,11.396 C81.680,11.396 77.442,15.975 77.442,21.329 C77.442,26.633 81.680,31.130 87.71,31.130 C89.469,31.130 91.310,30.401 92.167,30.60 L92.171,23.697 C92.171,23.227 92.513,22.882 92.983,22.882 L96.888,22.882 C97.317,22.882 97.658,23.269 97.658,23.697 L97.730,33.227 C97.730,33.569 97.559,33.781 97.388,33.911 C97.388,33.911 92.980,36.696 86.771,36.696 ZM60.130,36.308 L56.404,36.308 C55.762,36.308 55.463,36.51 55.163,35.451 L46.690,16.662 L46.561,16.662 L38.172,35.451 C38.1,35.880 37.614,36.308 36.928,36.308 L33.205,36.308 C32.564,36.308 32.222,35.752 32.477,35.197 L45.791,6.387 C45.920,6.133 46.133,5.916 46.516,5.916 L46.944,5.916 C47.373,5.916 47.544,6.133 47.673,6.387 L60.858,35.197 C61.112,35.752 60.771,36.308 60.130,36.308 ZM20.381,28.262 C20.381,32.670 16.572,36.738 10.538,36.738 C5.143,36.738 1.975,34.210 1.121,33.398 C0.734,33.12 0.522,32.799 0.905,32.113 L2.445,29.460 C2.791,28.861 3.515,28.861 3.903,29.161 C4.115,29.289 7.583,31.813 10.364,31.813 C12.591,31.813 14.261,30.359 14.261,28.519 C14.261,26.334 12.421,24.838 8.824,23.381 C4.802,21.754 0.776,19.189 0.776,14.135 C0.776,10.325 3.603,5.916 10.409,5.916 C14.773,5.916 18.112,8.143 18.970,8.785 C19.399,9.42 19.527,9.771 19.228,10.196 L17.600,12.636 C17.258,13.152 16.617,13.493 16.101,13.152 C15.760,12.936 12.508,10.796 10.152,10.796 C7.712,10.796 6.384,12.423 6.384,13.793 C6.384,15.804 7.970,17.174 11.434,18.589 C15.589,20.259 20.381,22.740 20.381,28.262 Z"/>
</svg>